{"title":"Furious 7 2015 360p BDrip XviD MP3 OmiTube","uid":12413571,"size":1042457345,"categoryP":"video","categoryS":"movies","magnet":"?xt=urn:btih:62ec4acd17e0b111a89a11c11cbd6ebedb41ce76&amp;dn=Furious+7+2015+360p+BDrip+XviD+MP3+OmiTube&amp;tr=udp%3A%2F%2Ftracker.openbittorrent.com%3A80&amp;tr=udp%3A%2F%2Fopen.demonii.com%3A1337&amp;tr=udp%3A%2F%2Ftracker.coppersurfer.tk%3A6969&amp;tr=udp%3A%2F%2Fexodus.desync.com%3A6969","seeders":1,"leechers":1,"uploader":"Omifast","files":7,"time":1442189200,"description":"Furious 7 (2015) \nPG-13 | 137 min | Action, Crime, Thriller | 3 April 2015 (USA)\n\nAfter defeating international terrorist Owen Shaw, Dominic Toretto (Vin Diesel), Brian O'Conner (Paul Walker) and the rest of the crew have separated to return to more normal lives. However, Deckard Shaw (Jason Statham), Owen's older brother, is thirsty for revenge. A slick government agent offers to help Dom and company take care of Shaw in exchange for their help in rescuing a kidnapped computer hacker who has developed a powerful surveillance program.\n\nStars: Vin Diesel, Paul Walker, Dwayne Johnson, Jason Statham\n\n===========================================\n\nSnapshots &lt;a href=&quot;\nhttp://imgur.com/AY9BjNs&quot; rel=&quot;nofollow&quot; target=&quot;_NEW&quot;&gt;\nhttp://imgur.com/AY9BjNs&lt;/a&gt;\n\n===========================================\n\nSample, Snapshots and Media Info Included\n\n\nOmiTube Online Movies &lt;a href=&quot;\nhttp://www.omitube.com/&quot; rel=&quot;nofollow&quot; target=&quot;_NEW&quot;&gt;\nhttp://www.omitube.com/&lt;/a&gt;\n\n============================================\n\n\nMEDIA INFO\nGeneral\nComplete name                  : Furious 7 2015 360p BDrip XviD MP3 OmiTube.avi\nFormat                         : AVI\nFormat/Info                    : Audio Video Interleave\nFile size                      : 981 MiB\nDuration                       : 2h 19mn\nOverall bit rate mode          : Variable\nOverall bit rate               : 980 Kbps\nWriting application            : VirtualDubMod 1.5.4.1 (build 2178/release)\nWriting library                : VirtualDubMod build 2178/release\n\nVideo\nID                             : 0\nFormat                         : MPEG-4 Visual\nFormat profile                 : Advanced Simple@L5\nFormat settings, BVOP          : 1\nFormat settings, QPel          : No\nFormat settings, GMC           : No warppoints\nFormat settings, Matrix        : Custom\nCodec ID                       : XVID\nCodec ID/Hint                  : XviD\nDuration                       : 2h 19mn\nBit rate                       : 861 Kbps\nWidth                          : 640 pixels\nHeight                         : 272 pixels\nDisplay aspect ratio           : 2.35:1\nFrame rate                     : 23.976 fps\nColor space                    : YUV\nChroma subsampling             : 4:2:0\nBit depth                      : 8 bits\nScan type                      : Progressive\nCompression mode               : Lossy\nBits/(Pixel*Frame)             : 0.206\nStream size                    : 861 MiB (88%)\nWriting library                : XviD 73\n\nAudio\nID                             : 1\nFormat                         : MPEG Audio\nFormat version                 : Version 1\nFormat profile                 : Layer 3\nMode                           : Joint stereo\nMode extension                 : MS Stereo\nCodec ID                       : 55\nCodec ID/Hint                  : MP3\nDuration                       : 2h 19mn\nBit rate mode                  : Variable\nBit rate                       : 107 Kbps\nNominal bit rate               : 128 Kbps\nChannel(s)                     : 2 channels\nSampling rate                  : 48.0 KHz\nCompression mode               : Lossy\nStream size                    : 107 MiB (11%)\nAlignment                      : Aligned on interleaves\nInterleave, duration           : 24 ms (0.58 video frame)\nInterleave, preload duration   : 172 ms\nWriting library                : LAME3.98r\nEncoding settings              : -m j -V 4 -q 2 -lowpass 17 --abr 128","torrent":{"xt":"urn:btih:62ec4acd17e0b111a89a11c11cbd6ebedb41ce76","amp;dn":"Furious+7+2015+360p+BDrip+XviD+MP3+OmiTube","amp;tr":["udp%3A%2F%2Ftracker.openbittorrent.com%3A80","udp%3A%2F%2Fopen.demonii.com%3A1337","udp%3A%2F%2Ftracker.coppersurfer.tk%3A6969","udp%3A%2F%2Fexodus.desync.com%3A6969"],"infoHash":"62ec4acd17e0b111a89a11c11cbd6ebedb41ce76","infoHashBuffer":{"type":"Buffer","data":[98,236,74,205,23,224,177,17,168,154,17,193,28,189,110,190,219,65,206,118]},"announce":[],"urlList":[]}}